# xmcd
#
# Track frame offsets:
#	150
#	18413
#	34665
#	56820
#	81068
#	97353
#	115685
#	133685
#	152285
#	173503
#	193838
#	213658
#	233580
#	254740
#	269253
#	290180
#	327425
#
# Disc length: 4437 seconds
#
# Revision: 55
# Processed by: cddbd v1.5.2PL0 Copyright (c) Steve Scherf et al.
# Submitted via: audiograbber 1.83.01
#
DISCID=f9115311
DTITLE=Red Hot Chili Peppers - Blood Sugar Sex Magik
DYEAR=1991
DGENRE=Funk Rock
TTITLE0=The Power of Equality
TTITLE1=If You Have to Ask
TTITLE2=Breaking the Girl
TTITLE3=Funky Monks
TTITLE4=Suck My Kiss
TTITLE5=I Could Have Lied
TTITLE6=Mellowship Slinky in B Major
TTITLE7=The Righteous and the Wicked
TTITLE8=Give It Away
TTITLE9=Blood Sugar Sex Magik
TTITLE10=Under the Bridge
TTITLE11=Naked in the Rain
TTITLE12=Apache Rose Peacock
TTITLE13=The Greeting Song
TTITLE14=My Lovely Man
TTITLE15=Sir Psycho Sexy
TTITLE16=They're Red Hot
EXTD=
EXTT0=
EXTT1=
EXTT2=
EXTT3=
EXTT4=
EXTT5=
EXTT6=
EXTT7=
EXTT8=
EXTT9=
EXTT10=
EXTT11=
EXTT12=
EXTT13=
EXTT14=
EXTT15=
EXTT16=
PLAYORDER=
